<svg width="110" height="110" viewBox="0 0 110 110" fill="none" xmlns="http://www.w3.org/2000/svg">
<path d="M55 9.16675C59.3441 9.16662 63.6431 10.0487 67.6361 11.7595C71.6292 13.4704 75.2333 15.9743 78.2298 19.1195C81.2263 22.2648 83.5529 25.9858 85.0685 30.057C86.584 34.1282 87.257 38.4648 87.0466 42.8038C93.1733 44.9556 98.3409 49.206 101.634 54.8023C104.928 60.3987 106.135 66.9799 105.041 73.3807C103.948 79.7815 100.625 85.5889 95.6602 89.7746C90.6957 93.9603 84.4102 96.2542 77.9166 96.2501H32.0833C25.5898 96.2542 19.3043 93.9603 14.3398 89.7746C9.37531 85.5889 6.05213 79.7815 4.95871 73.3807C3.86528 66.9799 5.07216 60.3987 8.36562 54.8023C11.6591 49.206 16.8267 44.9556 22.9533 42.8038C22.7429 38.4648 23.4159 34.1282 24.9315 30.057C26.4471 25.9858 28.7736 22.2648 31.7702 19.1195C34.7667 15.9743 38.3707 13.4704 42.3638 11.7595C46.3569 10.0487 50.6558 9.16662 55 9.16675ZM55 18.3334C51.8968 18.3335 48.8259 18.9638 45.9736 20.1861C43.1213 21.4085 40.5469 23.1974 38.4066 25.4444C36.2663 27.6914 34.6047 30.3497 33.5225 33.258C32.4403 36.1664 31.96 39.2643 32.1108 42.3638L32.4316 49.1838L25.9966 51.448C21.9198 52.8898 18.4834 55.7256 16.2942 59.4547C14.1049 63.1839 13.3036 67.5666 14.0317 71.8292C14.7597 76.0917 16.9704 79.96 20.2733 82.7511C23.5762 85.5422 27.759 87.0766 32.0833 87.0834H77.9166C81.2915 87.0823 84.6006 86.1497 87.4794 84.3882C90.3581 82.6268 92.6948 80.1049 94.232 77.1004C95.7691 74.0959 96.4471 70.7253 96.1913 67.3602C95.9354 63.995 94.7556 60.7657 92.7819 58.0282C90.8081 55.2906 88.117 53.151 85.005 51.845C81.8931 50.539 78.481 50.1174 75.1447 50.6266C71.8085 51.1358 68.6775 52.556 66.0967 54.7308C63.516 56.9055 61.5856 59.7505 60.5183 62.9522L51.8191 60.0509C53.6471 54.5756 57.1509 49.8139 61.8345 46.4398C66.5181 43.0657 72.1442 41.2501 77.9166 41.2501C77.9166 35.1722 75.5022 29.3433 71.2045 25.0456C66.9068 20.7478 61.0779 18.3334 55 18.3334Z" fill="#E1E1E1"/>
</svg>
