<svg width="103" height="103" viewBox="0 0 103 103" fill="none" xmlns="http://www.w3.org/2000/svg">
<path d="M64.375 14.4844C57.6931 14.4876 51.1365 16.2977 45.3994 19.723C39.6622 23.1483 34.9581 28.0613 31.7852 33.9417C28.0936 33.5603 24.363 33.934 20.8204 35.04C17.2779 36.1459 13.9973 37.961 11.1784 40.3749C8.35946 42.7888 6.06111 45.7509 4.42315 49.0811C2.7852 52.4113 1.84189 56.0399 1.65062 59.7462C1.45935 63.4525 2.02412 67.1589 3.31056 70.64C4.597 74.1211 6.57822 77.3041 9.13368 79.9954C11.6891 82.6866 14.7654 84.8298 18.1753 86.2945C21.5853 87.7593 25.2575 88.515 28.9688 88.5156H64.375C74.1922 88.5156 83.6072 84.6158 90.549 77.674C97.4908 70.7322 101.391 61.3172 101.391 51.5C101.391 41.6828 97.4908 32.2678 90.549 25.326C83.6072 18.3842 74.1922 14.4844 64.375 14.4844ZM64.375 78.8594H28.9688C24.2736 78.9565 19.7322 77.1845 16.3435 73.9331C12.9549 70.6818 10.9966 66.2175 10.8995 61.5224C10.8024 56.8272 12.5744 52.2858 15.8257 48.8971C19.077 45.5085 23.5413 43.5502 28.2365 43.4531C27.6504 46.0952 27.3563 48.7937 27.3594 51.5C27.3594 52.7805 27.8681 54.0085 28.7735 54.914C29.679 55.8194 30.907 56.3281 32.1875 56.3281C33.468 56.3281 34.6961 55.8194 35.6015 54.914C36.507 54.0085 37.0156 52.7805 37.0156 51.5C37.0156 46.0888 38.6202 40.7992 41.6265 36.2999C44.6328 31.8007 48.9057 28.294 53.905 26.2232C58.9043 24.1525 64.4054 23.6107 69.7126 24.6663C75.0198 25.722 79.8947 28.3277 83.721 32.154C87.5473 35.9803 90.153 40.8553 91.2087 46.1624C92.2643 51.4696 91.7225 56.9707 89.6518 61.97C87.581 66.9693 84.0743 71.2422 79.5751 74.2485C75.0758 77.2548 69.7862 78.8594 64.375 78.8594Z" fill="#E1E1E1"/>
</svg>
